<svg width="46" height="43" fill="none" xmlns="http://www.w3.org/2000/svg"><path d="M1.438 3.644H0V5.1h1.438V3.644zm44.562 0h-1.438V5.1H46V3.644zm-30.187 0H7.187V5.1h8.625V3.644z" fill="#CACACA"/><path d="M41.687 0H27.218v3.644h-8.53V0H4.217v3.644H2.875V5.1h1.343v35.712l.002 1.716 1.218-1.194c.014-.014 1.366-1.32 3.16-1.252 1.056.04 1.591.56 2.268 1.219.76.739 1.704 1.658 3.494 1.697l.107.001c2.292 0 3.934-1.597 4.004-1.666l.216-.214V5.102h8.531V41.12l.217.214c.07.07 1.71 1.666 4.004 1.666l.107-.001c.802-.018 1.502-.21 2.14-.587.544-.322.955-.723 1.353-1.11.677-.659 1.212-1.18 2.268-1.219 1.792-.066 3.147 1.239 3.158 1.25l1.222 1.216V5.102h1.438V3.644h-1.438V0zM17.25 40.477c-.447.356-1.535 1.093-2.86 1.065a3.207 3.207 0 01-.734-.098V30.61H12.22v9.982a18.5 18.5 0 01-.357-.34c-.754-.734-1.607-1.564-3.21-1.624a5.216 5.216 0 00-.19-.004c-1.133 0-2.102.38-2.806.779V1.457H17.25v39.019zm20.004-1.85c-1.603.06-2.457.89-3.21 1.623l-.263.254V30.61h-1.437v10.81a3.152 3.152 0 01-.829.122c-1.323.03-2.413-.709-2.86-1.065V1.457H40.25v37.944c-.743-.42-1.782-.82-2.996-.774z" fill="#CACACA"/><path d="M38.718 3.644h-8.625V5.1h8.625V3.644zm-2.062 5.83H35.22v10.203h1.437V9.474zm-26.593 0H8.624v10.203h1.438V9.474z" fill="#CACACA"/></svg>