<svg width="42" height="46" fill="none" xmlns="http://www.w3.org/2000/svg"><path d="M36.75 18.688A5.347 5.347 0 0033 20.201V5.11C33 2.292 30.608 0 27.667 0H14.333C11.393 0 9 2.292 9 5.11v15.092a5.347 5.347 0 00-3.75-1.515C2.355 18.688 0 20.945 0 23.72c0 2.53 1.959 4.63 4.5 4.98v5.8c0 2.956 1.872 5.5 4.54 6.603V46h1.5v-4.45c.472.09.96.138 1.46.138h18a7.82 7.82 0 001.41-.13V46h1.5v-4.876c2.694-1.09 4.59-3.65 4.59-6.624v-5.801c2.54-.35 4.5-2.45 4.5-4.98 0-2.774-2.355-5.032-5.25-5.032zM10.5 5.11c0-2.025 1.72-3.673 3.832-3.673h13.335c2.113 0 3.833 1.648 3.833 3.673v23.712a3.914 3.914 0 00-.75-.072h-19.5c-.257 0-.508.025-.75.072V5.11zm.75 25.078h19.5c1.24 0 2.25.967 2.25 2.156S31.99 34.5 30.75 34.5h-19.5c-1.24 0-2.25-.967-2.25-2.156 0-1.19 1.01-2.157 2.25-2.157zm25.5-2.875H36V34.5c0 3.17-2.692 5.75-6 5.75H12c-3.309 0-6-2.58-6-5.75v-7.188h-.75c-2.068 0-3.75-1.612-3.75-3.593 0-1.982 1.682-3.594 3.75-3.594S9 21.737 9 23.719v5.75h.003c-.912.656-1.503 1.7-1.503 2.875 0 1.981 1.682 3.593 3.75 3.593h19.5c2.068 0 3.75-1.612 3.75-3.593 0-1.175-.591-2.22-1.503-2.875H33v-5.75c0-1.982 1.682-3.594 3.75-3.594s3.75 1.612 3.75 3.594c0 1.981-1.682 3.593-3.75 3.593z" fill="#CDCDCD"/><path d="M28.5 18.688h-15v1.437h15v-1.438zm-11.25-8.625h-1.5V11.5h1.5v-1.437zm9 0h-1.5V11.5h1.5v-1.437z" fill="#CDCDCD"/></svg>