<svg width="51" height="40" fill="none" xmlns="http://www.w3.org/2000/svg"><path d="M47.813 7.843H30.53C32.788 6.281 34.267 3.7 34.267.784V0H16.734v.784c0 2.916 1.479 5.497 3.735 7.06H3.188C1.43 7.843 0 9.25 0 10.98c0 1.73 1.43 3.138 3.188 3.138H4.78V40h1.594v-3.922h38.25V40h1.594V14.118h1.593C49.57 14.118 51 12.71 51 10.98s-1.43-3.137-3.188-3.137zM18.372 1.57h14.255c-.398 3.524-3.443 6.274-7.128 6.274s-6.73-2.75-7.128-6.274zm26.252 32.94H6.375v-1.568h38.25v1.569zm0-3.136H6.375V19.608h38.25v11.765zm0-13.334H6.375v-3.921h38.25v3.921zm3.188-5.49H3.187c-.878 0-1.593-.704-1.593-1.569s.715-1.568 1.593-1.568h44.626c.878 0 1.593.703 1.593 1.568 0 .865-.715 1.569-1.593 1.569z" fill="#CDCDCD"/></svg>