<svg width="49" height="38" fill="none" xmlns="http://www.w3.org/2000/svg"><path d="M49 5.429V0H0v5.429h23.734V8.53h-3.062v13.96c0 1.872 1.317 3.439 3.062 3.8v2.87c-1.623.335-2.876 1.713-3.043 3.411h-1.55v.776c0 .855-.687 1.55-1.532 1.55h-.765V38h15.312v-3.102h-.765a1.543 1.543 0 01-1.532-1.551v-.776h-1.55c-.167-1.697-1.42-3.076-3.043-3.411v-2.87c1.745-.361 3.062-1.928 3.062-3.8V8.53h-3.062v-3.1H49zM28.425 34.122a3.094 3.094 0 002.2 2.229v.098h-12.25v-.098a3.094 3.094 0 002.2-2.229h7.85zm-1.66-1.55h-4.53c.183-1.1 1.129-1.94 2.265-1.94 1.136 0 2.081.84 2.264 1.94zm.032-22.49V22.49c0 1.283-1.03 2.326-2.297 2.326-1.267 0-2.297-1.043-2.297-2.326V10.082h4.594zM1.53 3.878V1.55h45.94v2.327H1.53z" fill="#CDCDCD"/></svg>