<svg width="21" height="20" fill="none" xmlns="http://www.w3.org/2000/svg"><path d="M8.773 18.143a.86.86 0 01-.864.857m.864-.857a.86.86 0 00-.864-.857m.864.857H7.045M7.91 19a.86.86 0 01-.864-.857M7.91 19v-1.714m-.864.857a.86.86 0 01.864-.857m10.364.857a.86.86 0 01-.864.857m.864-.857a.86.86 0 00-.864-.857m.864.857h-1.727m.863.857a.86.86 0 01-.863-.857m.863.857v-1.714m-.863.857a.86.86 0 01.863-.857M1 1h3.455l2.314 11.477c.08.395.295.75.611 1.002s.711.386 1.116.378h8.395c.405.008.8-.126 1.116-.378.316-.253.532-.607.611-1.002L20 5.286H5.318" stroke="#111" stroke-width="1.5" stroke-linecap="round" stroke-linejoin="round"/></svg>