<svg width="20" height="17" fill="none" xmlns="http://www.w3.org/2000/svg"><path d="M17.612 2.326a4.756 4.756 0 00-1.537-.981 4.928 4.928 0 00-3.626 0 4.757 4.757 0 00-1.536.981L10 3.198l-.913-.872A4.852 4.852 0 005.737 1a4.852 4.852 0 00-3.35 1.326C1.5 3.175 1 4.326 1 5.526c0 1.201.5 2.352 1.388 3.201l.912.872L10 16l6.7-6.4.912-.873c.44-.42.79-.92 1.027-1.468a4.351 4.351 0 000-3.465 4.517 4.517 0 00-1.027-1.468v0z" stroke="#111" stroke-width="1.5" stroke-linecap="round" stroke-linejoin="round"/></svg>