<svg width="31" height="46" fill="none" xmlns="http://www.w3.org/2000/svg"><path d="M9.618 5.043h-2.96v1.44h2.96v-1.44zm14.797 0h-2.96v1.44h2.96v-1.44z" fill="#CACACA"/><path d="M26.474 12.938C28.969 12.938 31 10.96 31 8.53V4.408C31 1.978 28.97 0 26.474 0H4.526C2.031 0 0 1.977 0 4.408V8.53c0 2.43 2.03 4.408 4.526 4.408H6.66v14.374H0v.72c0 2.132 1.599 3.907 3.69 4.25V46h1.477V32.344H7.38V46h1.476V32.344h13.33V46h1.476V32.344h2.215V46h1.476V32.275c2.07-.361 3.646-2.126 3.646-4.244v-.718h-6.643V12.938h2.117zm-18.336.09c1.261.319 2.195 1.437 2.195 2.763v11.521H8.138V13.028zM29.43 28.75c-.328 1.239-1.485 2.156-2.858 2.156H4.428c-1.374 0-2.53-.917-2.86-2.156H29.43zm-8.763-1.438V15.791c0-1.333.943-2.455 2.214-2.767v14.289h-2.214zm2.93-15.812c-2.43 0-4.407 1.925-4.407 4.29v11.522h-7.38V15.791c0-2.366-1.977-4.291-4.407-4.291H4.526c-1.681 0-3.05-1.332-3.05-2.97V4.408c0-1.638 1.368-2.97 3.05-2.97h21.948c1.681 0 3.05 1.332 3.05 2.97V8.53c0 1.638-1.369 2.97-3.05 2.97h-2.877z" fill="#CACACA"/></svg>