<svg width="43" height="24" fill="none" xmlns="http://www.w3.org/2000/svg"><path fill="#0074C8" d="M0 0h42.462v24H0z"/><path d="M10.437 8.308h-1.63a4.169 4.169 0 01-1.68 3.36l-.642.482 2.498 3.404h2.053L8.735 12.42a5.759 5.759 0 001.702-4.112zm-4.156 0H4.616v7.246H6.28V8.308zm6.807 0h-1.57v7.246h1.57V8.308zm13.776 2.096c-.599 0-1.168.183-1.548.701v-.562h-1.49v5.01h1.512v-2.629c0-.76.511-1.132 1.124-1.132.658 0 1.038.394 1.038 1.125v2.644h1.497v-3.192c0-1.169-.927-1.965-2.133-1.965zm-9.028.139v.321a2.643 2.643 0 10-1.49 4.828 2.61 2.61 0 001.49-.46v.322h1.497v-5.011h-1.497zm-1.366 3.79c-.752 0-1.358-.576-1.358-1.285 0-.708.606-1.285 1.358-1.285.752 0 1.359.577 1.359 1.285 0 .709-.607 1.286-1.359 1.286zm5.187-3.14v-.65h-1.534v5.01h1.54v-2.336c0-.79.855-1.213 1.447-1.213h.015v-1.46c-.607 0-1.17.262-1.468.65zm12-.65v.321a2.643 2.643 0 10-1.49 4.828 2.61 2.61 0 001.49-.46v.322h1.497v-5.011h-1.497zm-1.366 3.79c-.752 0-1.359-.576-1.359-1.285 0-.708.607-1.285 1.359-1.285s1.359.577 1.359 1.285c.007.709-.607 1.286-1.36 1.286zm4.024-3.643c0-.074-.05-.117-.131-.117h-.139v.38h.066v-.14h.073l.058.14h.073l-.066-.154a.113.113 0 00.066-.11zm-.131.058h-.073v-.117h.073c.044 0 .066.022.066.058 0 .037-.015.059-.066.059z" fill="#fff"/><path d="M36.162 10.412a.358.358 0 00-.358.357.364.364 0 00.358.358.358.358 0 000-.715zm0 .65a.287.287 0 01-.285-.292c0-.161.132-.293.285-.293.161 0 .285.132.285.293 0 .16-.131.292-.285.292zm.592 2.718a.945.945 0 00-.942.941c0 .519.424.943.942.943a.945.945 0 00.942-.943.94.94 0 00-.942-.942z" fill="#fff"/></svg>