<svg width="43" height="24" fill="none" xmlns="http://www.w3.org/2000/svg"><path fill="#fff" d="M0 0h42.462v24H0z"/><path d="M24.456 18.534h-7.268V5.471h7.268v13.063z" fill="#6C6BBD"/><path d="M17.653 12.002c0-2.65 1.24-5.01 3.173-6.532a8.307 8.307 0 00-13.44 6.531 8.307 8.307 0 0013.44 6.532 8.294 8.294 0 01-3.173-6.531z" fill="#EB001B"/><path d="M34.258 12.002a8.307 8.307 0 01-13.44 6.531 8.293 8.293 0 003.173-6.531c0-2.65-1.24-5.01-3.174-6.532a8.307 8.307 0 0113.441 6.531z" fill="#0099DF"/></svg>