<svg width="43" height="24" fill="none" xmlns="http://www.w3.org/2000/svg"><path fill="#fff" d="M0 0h42.462v24H0z"/><path d="M34.007 17.143v-.322h-.084l-.097.221-.096-.221h-.085v.322h.06V16.9l.09.21h.062l.091-.21v.243h.06zm-.533 0v-.267h.108v-.055h-.275v.055h.108v.267h.06z" fill="#F79410"/><path d="M24.457 18.53H17.19V5.467h7.268V18.53z" fill="#FF5F00"/><path d="M17.654 11.997c0-2.65 1.241-5.01 3.173-6.532a8.307 8.307 0 00-13.44 6.531 8.307 8.307 0 0013.44 6.532 8.294 8.294 0 01-3.173-6.531z" fill="#EB001B"/><path d="M34.26 11.997a8.307 8.307 0 01-13.44 6.531 8.293 8.293 0 003.172-6.531c0-2.65-1.24-5.01-3.173-6.532a8.307 8.307 0 0113.441 6.531z" fill="#F79E1B"/></svg>