<svg width="54" height="36" fill="none" xmlns="http://www.w3.org/2000/svg"><path d="M10.969 8.415H9.28v1.588h1.688V8.415zm32.906 0h-1.688v1.588h1.688V8.415zm-9.281 0h-1.688v1.588h1.688V8.415zm-13.5 0h-1.688v1.588h1.688V8.415z" fill="#fff"/><path d="M51.45 23.1A4.191 4.191 0 0054 19.256a4.191 4.191 0 00-2.531-3.836V5.422c0-2.99-2.452-5.422-5.464-5.422H31.62A5.474 5.474 0 0027 2.533 5.474 5.474 0 0022.38 0H7.995C4.982 0 2.531 2.432 2.531 5.422v9.998A4.19 4.19 0 000 19.256 4.191 4.191 0 002.55 23.1 4.605 4.605 0 000 27.21c0 2.538 2.082 4.604 4.64 4.604h.423V36H6.75v-4.186h40.5V36h1.688v-4.186h.421c2.56 0 4.641-2.066 4.641-4.605a4.607 4.607 0 00-2.55-4.109zm.862-3.844a2.523 2.523 0 01-2.53 2.511c-1.396 0-2.532-1.126-2.532-2.511a2.525 2.525 0 012.531-2.512 2.524 2.524 0 012.531 2.512zm-5.06 3.349h-.359c.036-.07.068-.141.097-.214.085.075.172.146.263.214zM27.845 5.422c0-2.067 1.694-3.748 3.776-3.748h14.385c2.082 0 3.776 1.681 3.776 3.748v9.648a4.222 4.222 0 00-3.087 1.337 2.975 2.975 0 00-2.457-1.294h-7.474c-1.637 0-2.97 1.322-2.97 2.946v3.23c0 .473.114.92.314 1.316h-6.263V5.422zM45.606 19.85v1.44c0 .633-.44 1.166-1.033 1.315h-8.146a1.36 1.36 0 01-1.033-1.315v-3.23c0-.75.614-1.359 1.369-1.359h7.474c.755 0 1.369.61 1.369 1.358v.602a4.163 4.163 0 000 1.19zM4.219 5.422c0-2.067 1.694-3.748 3.776-3.748H22.38c2.082 0 3.776 1.681 3.776 3.748v17.183H6.747a4.172 4.172 0 001.69-3.35c0-2.307-1.892-4.185-4.218-4.185V5.422zM1.688 19.256a2.524 2.524 0 012.53-2.512 2.524 2.524 0 012.532 2.512 2.524 2.524 0 01-2.531 2.511 2.524 2.524 0 01-2.531-2.511zm47.671 10.883H4.641c-1.629 0-2.954-1.314-2.954-2.93 0-1.615 1.325-2.93 2.954-2.93h44.718c1.628 0 2.953 1.315 2.953 2.93 0 1.616-1.324 2.93-2.953 2.93z" fill="#fff"/></svg>