<svg width="51" height="46" fill="none" xmlns="http://www.w3.org/2000/svg"><path d="M22.313 30.188h-1.594V34.5h1.593v-4.312zm7.968 0h-1.594V34.5h1.594v-4.312z" fill="#CDCDCD"/><path d="M45.801 23h-5.16v-2.156h4.78V0H5.579v20.844h4.781V23H5.2C2.331 23 0 25.103 0 27.689v10.029c0 2.208 1.702 4.063 3.984 4.558V46h1.594v-3.594h39.844V46h1.594v-3.724C49.298 41.78 51 39.926 51 37.717V27.69c0-2.587-2.332-4.69-5.199-4.69zm-38.63-3.594V1.438h36.657v17.968H7.172zM24.704 40.97H5.198c-1.987 0-3.604-1.459-3.604-3.252V27.69c0-1.793 1.617-3.252 3.604-3.252h19.505V40.97zM11.953 23v-2.156h27.094V23H11.953zm37.453 14.718c0 1.792-1.617 3.25-3.605 3.25H26.297v-16.53H45.8c1.988 0 3.605 1.458 3.605 3.25v10.03z" fill="#CDCDCD"/><path d="M41.438 15.813H9.561v1.437h31.876v-1.438zM27.89 2.875h-4.78v1.438h4.78V2.875z" fill="#CDCDCD"/></svg>