<svg width="43" height="46" fill="none" xmlns="http://www.w3.org/2000/svg"><path d="M4.971 20.484H3.536v5.032h1.435v-5.032zm20.988 0h-1.435v5.032h1.435v-5.032z" fill="#CDCDCD"/><path d="M37.65 0H5.35C2.4 0 0 2.404 0 5.36v31.687c0 1.732.825 3.273 2.101 4.254V46h1.435v-3.911a5.316 5.316 0 001.814.317h32.3c.617 0 1.21-.106 1.762-.3V46h1.435v-4.659A5.358 5.358 0 0043 37.047V5.359C43 2.404 40.6 0 37.65 0zm-8.283 7.906h4.305v2.875h-4.305V7.906zm3.493 4.313h3.298l2.537 3.811v17.032h-3.588V15.596L32.86 12.22zm-3.493 0h1.769l2.536 3.811v17.032h-4.305V12.22zm-8.61 28.75H5.35a3.923 3.923 0 01-3.915-3.922V5.359A3.923 3.923 0 015.35 1.438h15.407v39.53zm7.175-4.335h-.022v4.335h-5.718V1.438h5.74v35.196zm9.305 3.593H29.39v-2.11h7.848v2.11zm4.328-3.18a3.927 3.927 0 01-2.848 3.772v-4.185h-9.35V34.5H40.13V15.595l-3.204-4.814h-1.819V7.906h6.458v29.14zm0-30.578H29.367V1.438h8.283a3.923 3.923 0 013.915 3.921v1.11z" fill="#CDCDCD"/></svg>