<svg width="46" height="43" viewBox="0 0 46 43" fill="none" xmlns="http://www.w3.org/2000/svg">
<path d="M1.43754 3.64394H0V5.10147H1.43754V3.64394Z" fill="#CACACA"/>
<path d="M46 3.64394H44.5625V5.10147H46V3.64394Z" fill="#CACACA"/>
<path d="M15.8125 3.64394H7.18749V5.10147H15.8125V3.64394Z" fill="#CACACA"/>
<path d="M41.6874 0H27.2181V3.64394H18.6875V0H4.21808V3.64394H2.87498V5.10147H4.21808V40.8126L4.22006 42.5287L5.43832 41.3346C5.45175 41.3214 6.80377 40.015 8.59846 40.0833C9.65434 40.1227 10.1891 40.6431 10.8662 41.3019C11.6254 42.0406 12.5702 42.96 14.3595 42.9988C14.3954 42.9996 14.4309 43 14.4666 43C16.7594 43 18.4007 41.4033 18.4705 41.3343L18.6874 41.1198V5.10157H27.218V41.1198L27.4349 41.3343C27.5047 41.4034 29.1458 43 31.4388 43C31.4743 43 31.51 42.9996 31.5459 42.9988C32.3478 42.9813 33.0475 42.7895 33.6851 42.412C34.2298 42.0895 34.6414 41.689 35.0393 41.3019C35.7164 40.643 36.2511 40.1227 37.307 40.0833C39.0995 40.0172 40.4536 41.3215 40.4652 41.3327L41.6873 42.549V5.10157H43.1248V3.64394H41.6874V0ZM17.25 40.4765C16.8029 40.8329 15.7154 41.5704 14.3903 41.5415C14.1168 41.5356 13.8756 41.5006 13.6562 41.4443V30.6095H12.2187V40.5914C12.1001 40.4819 11.9822 40.3677 11.8616 40.2502C11.1083 39.5174 10.2546 38.6867 8.65149 38.6267C8.58804 38.6244 8.52506 38.6232 8.46254 38.6232C7.32904 38.6232 6.3596 39.0036 5.65562 39.4015V1.45763H17.25V40.4765ZM37.2541 38.6267C35.651 38.6867 34.7973 39.5173 34.044 40.2502C33.9553 40.3365 33.8682 40.4213 33.7811 40.5035V30.6095H32.3436V41.4198C32.1 41.4914 31.828 41.5349 31.515 41.5416C30.1921 41.5716 29.1025 40.8331 28.6554 40.4766V1.45763H40.2498V39.4013C39.5069 38.9816 38.4685 38.5818 37.2541 38.6267Z" fill="#CACACA"/>
<path d="M38.7181 3.64394H30.0931V5.10147H38.7181V3.64394Z" fill="#CACACA"/>
<path d="M36.6562 9.47437H35.2187V19.6775H36.6562V9.47437Z" fill="#CACACA"/>
<path d="M10.0625 9.47437H8.62502V19.6775H10.0625V9.47437Z" fill="#CACACA"/>
</svg>
