<svg width="31" height="46" viewBox="0 0 31 46" fill="none" xmlns="http://www.w3.org/2000/svg">
<path d="M9.61784 5.04303H6.65846V6.48384H9.61784V5.04303Z" fill="#CACACA"/>
<path d="M24.4146 5.04303H21.4553V6.48384H24.4146V5.04303Z" fill="#CACACA"/>
<path d="M26.4736 12.9375C28.9695 12.9375 31 10.9602 31 8.5297V4.40779C31 1.97729 28.9695 0 26.4736 0H4.52643C2.03052 0 0 1.97729 0 4.40779V8.5297C0 10.9602 2.03061 12.9375 4.52643 12.9375H6.65856V27.3125H0V28.0312C0 30.1642 1.59883 31.9394 3.69051 32.2826V46H5.16663V32.3437H7.38092V46H8.85705V32.3437H22.1871V46H23.6633V32.3437H25.8776V46H27.3538V32.275C29.4236 31.914 30.9999 30.1491 30.9999 28.0312V27.3125H24.3571V12.9375H26.4736ZM8.13815 13.0285C9.39921 13.3469 10.3333 14.4646 10.3333 15.7908V27.3125H8.13815V13.0285ZM29.4303 28.7499C29.1019 29.9886 27.9446 30.9063 26.5715 30.9063H4.42857C3.05541 30.9063 1.89818 29.9886 1.56955 28.7499H29.4303ZM20.6667 27.3125V15.7908C20.6667 14.4579 21.6102 13.3358 22.881 13.024V27.3125H20.6667ZM23.5967 11.5C21.1671 11.5 19.1904 13.4248 19.1904 15.7908V27.3124H11.8095V15.7908C11.8095 13.4248 9.83282 11.5 7.40327 11.5H4.52643C2.84457 11.5 1.47613 10.1676 1.47613 8.5297V4.40779C1.47613 2.76992 2.84448 1.43753 4.52643 1.43753H26.4736C28.1554 1.43753 29.5238 2.76992 29.5238 4.40779V8.5297C29.5238 10.1676 28.1554 11.5 26.4736 11.5H23.5967Z" fill="#CACACA"/>
</svg>
